<svg width="80" height="80" viewBox="0 0 80 80" fill="none" xmlns="http://www.w3.org/2000/svg">
<g clip-path="url(#clip0_219_277)">
<path d="M61.2449 44.9967H67.5057C74.3085 44.9967 79.8429 39.4623 79.8429 32.6595C79.8429 26.2128 74.5982 20.9679 68.1513 20.9679C67.891 20.9679 67.6315 20.979 67.3726 20.9953V18.389C67.3726 17.7419 66.8481 17.2172 66.2007 17.2172H60.7523C60.1049 17.2172 59.5804 17.7419 59.5804 18.389C59.5804 19.0362 60.1049 19.5609 60.7523 19.5609H65.0288V30.1156C65.0288 32.7975 64.4768 35.3853 63.3879 37.8075C62.5253 39.7287 61.3518 41.4826 59.8999 43.0209C58.6903 44.3031 57.3071 45.4055 55.7887 46.3058H27.8882C22.1825 42.9248 18.6492 36.7511 18.6492 30.1158V19.5611H56.0648C56.7121 19.5611 57.2367 19.0364 57.2367 18.3892C57.2367 17.742 56.7121 17.2173 56.0648 17.2173H17.4773C16.83 17.2173 16.3054 17.742 16.3054 18.3892V30.1158C16.3054 36.4044 19.1276 42.3237 23.8543 46.3058H12.6914C12.044 46.3058 11.5195 46.8305 11.5195 47.4776V49.4256C11.5195 52.0584 12.457 54.5305 14.1443 56.464C13.6962 56.6459 13.2615 56.8612 12.8454 57.1114C12.2906 57.4447 12.1112 58.1647 12.4446 58.7195C12.6645 59.0853 13.0525 59.288 13.4503 59.288C13.6557 59.288 13.8639 59.2339 14.0528 59.1203C15.1529 58.4592 16.4248 58.1097 17.7304 58.1097H20.8086C20.7982 58.4751 20.8114 58.843 20.8534 59.2106L22.9675 77.6562H14.3109L10.9357 67.534C10.6917 66.8017 10.5656 66.0426 10.5614 65.2803C10.5576 64.1795 10.8203 63.0703 11.3212 62.0726C11.6115 61.4942 11.3781 60.79 10.7996 60.4995C10.2215 60.2092 9.51699 60.4425 9.22668 61.0209C8.73965 61.9909 8.42418 63.042 8.2909 64.112H5.79918C3.88231 64.112 2.1145 65.0717 1.07012 66.6791C0.0260608 68.2859 -0.132377 70.2905 0.646061 72.0411C1.70106 74.4142 3.41028 76.4178 5.59028 77.8361C7.77028 79.2517 10.2956 80 12.8932 80H51.6915C56.9826 80 61.7893 76.8758 63.9371 72.0411C64.2629 71.3084 64.4281 70.5375 64.4281 69.7497C64.4281 66.6411 61.8962 64.112 58.7842 64.112H56.2901C56.1146 62.7105 55.6228 61.355 54.861 60.1587H61.4251C67.3426 60.1587 72.1568 55.3437 72.1568 49.4255V47.4775C72.1568 46.8303 71.6323 46.3056 70.9849 46.3056H59.8278C60.3198 45.8919 60.7917 45.4544 61.2449 44.9967ZM2.78778 71.0889C2.32622 70.0508 2.41637 68.9089 3.03559 67.9559C3.65497 67.0026 4.66231 66.4558 5.79918 66.4558H8.29606C8.37528 67.0717 8.51387 67.6803 8.71215 68.2753L11.8223 77.603C10.0598 77.4323 8.3645 76.8431 6.86746 75.8711C5.06918 74.7008 3.6584 73.0473 2.78778 71.0889ZM24.5207 54.7212C25.5473 53.5703 27.0206 52.9103 28.5628 52.9103H36.0207C37.5629 52.9103 39.0362 53.5705 40.0628 54.7212C41.0892 55.8722 41.5773 57.4111 41.4017 58.9433L39.2568 77.6558H25.3262L23.1815 58.9433C23.0062 57.4112 23.4943 55.8723 24.5207 54.7212ZM41.6162 77.6562L43.7304 59.2103C43.7726 58.8426 43.7857 58.4748 43.7753 58.1094H46.8553C48.7726 58.1094 50.5695 58.8525 51.9146 60.2019C53.2592 61.5506 54.027 63.4019 54.0209 65.28C54.0181 66.0391 53.8921 66.7975 53.6465 67.534L50.2717 77.6562H41.6162ZM62.0843 69.7497C62.0843 70.2073 61.9871 70.658 61.7953 71.0892C60.169 74.7501 56.6949 77.2205 52.7601 77.6028L55.8701 68.2753C56.069 67.6786 56.2078 67.07 56.2868 66.4558H58.784C60.6039 66.4558 62.0843 67.9334 62.0843 69.7497ZM69.8131 49.4255C69.8131 54.0514 66.0503 57.815 61.4251 57.815H52.7521C51.0842 56.488 49.0282 55.7655 46.8553 55.7655H43.3426C43.0104 54.8153 42.4957 53.9278 41.812 53.1611C40.3414 51.5122 38.2304 50.5664 36.021 50.5664H28.5631C26.3535 50.5664 24.2428 51.5122 22.7721 53.1611C22.0884 53.9278 21.5737 54.8153 21.2415 55.7655H17.7306C17.4223 55.7655 17.1154 55.7809 16.8109 55.8101C14.9323 54.2112 13.8634 51.9098 13.8634 49.4255V48.6494H69.8132V49.4255H69.8131ZM67.3724 28.9194C67.6274 28.874 67.8876 28.8509 68.1512 28.8509C70.2512 28.8509 71.9598 30.5595 71.9598 32.6595C71.9598 35.1165 69.9617 37.1153 67.5056 37.1153H66.1856C66.9731 34.8765 67.3724 32.5297 67.3724 30.1158V28.9194ZM65.1979 39.459H67.5057C71.2542 39.459 74.3037 36.4089 74.3037 32.6595C74.3037 29.2672 71.5438 26.5072 68.1513 26.5072C67.8895 26.5072 67.6298 26.5236 67.3726 26.5531V23.3436C67.6309 23.3236 67.8907 23.3117 68.1513 23.3117C73.3057 23.3117 77.4992 27.5051 77.4992 32.6595C77.4992 38.17 73.0162 42.653 67.5057 42.653H63.2543C63.9956 41.6481 64.6448 40.5806 65.1979 39.459Z" fill="#AA8453"/>
<path d="M29.18 8.29188C30.1737 8.29188 30.9822 9.10032 30.9822 10.0941C30.9822 11.0878 30.1737 11.8963 29.18 11.8963C28.5326 11.8963 28.0081 12.4209 28.0081 13.0681C28.0081 13.7153 28.5326 14.24 29.18 14.24C31.4661 14.24 33.3259 12.3802 33.3259 10.0941C33.3259 7.80797 31.4661 5.94813 29.18 5.94813C28.1864 5.94813 27.3779 5.13969 27.3779 4.14594C27.3779 3.15219 28.1864 2.34375 29.18 2.34375C29.8273 2.34375 30.3518 1.81906 30.3518 1.17188C30.3518 0.524688 29.8273 0 29.18 0C26.8939 0 25.0342 1.85984 25.0342 4.14594C25.0342 6.43203 26.8939 8.29188 29.18 8.29188Z" fill="#AA8453"/>
<path d="M40.0444 8.29188C41.0381 8.29188 41.8466 9.10032 41.8466 10.0941C41.8466 11.0878 41.0381 11.8963 40.0444 11.8963C39.397 11.8963 38.8725 12.4209 38.8725 13.0681C38.8725 13.7153 39.397 14.24 40.0444 14.24C42.3305 14.24 44.1903 12.3802 44.1903 10.0941C44.1903 7.80797 42.3305 5.94813 40.0444 5.94813C39.0506 5.94813 38.2422 5.13969 38.2422 4.14594C38.2422 3.15219 39.0506 2.34375 40.0444 2.34375C40.6917 2.34375 41.2163 1.81906 41.2163 1.17188C41.2163 0.524688 40.6917 0 40.0444 0C37.7583 0 35.8984 1.85984 35.8984 4.14594C35.8984 6.43203 37.7583 8.29188 40.0444 8.29188Z" fill="#AA8453"/>
</g>
<defs>
<clipPath id="clip0_219_277">
<rect width="80" height="80" fill="white"/>
</clipPath>
</defs>
</svg>
