<svg width="80" height="80" viewBox="0 0 80 80" fill="none" xmlns="http://www.w3.org/2000/svg">
<path d="M80 36.1884V35.1562C80 32.968 78.8978 31.0331 77.2202 29.875C77.615 29.5561 77.9711 29.1805 78.2758 28.7495C79.315 27.2798 79.5761 25.3869 78.9744 23.6861C77.5212 19.5783 74.5013 13.6628 68.3661 8.80875C61.2922 3.21219 51.7542 0.288125 40.0169 0.118281C40.0056 0.118125 39.9942 0.118125 39.983 0.118281C34.6781 0.195 29.7639 0.844062 25.3769 2.04734C24.753 2.21844 24.3858 2.86312 24.5569 3.48703C24.728 4.11094 25.3725 4.47844 25.9966 4.30703C30.1881 3.15734 34.8994 2.53641 39.9998 2.46141C65.3458 2.83484 73.9144 16.4083 76.7652 24.4675C77.1187 25.4669 76.9719 26.5345 76.3623 27.3969C75.758 28.2517 74.8102 28.742 73.762 28.742H6.23734C5.18531 28.742 4.2325 28.2489 3.62359 27.3889C3.02188 26.5394 2.87406 25.4917 3.21781 24.5148C5.29609 18.6092 10.0688 10.6067 21.003 6.02109C21.5997 5.77078 21.8806 5.08437 21.6303 4.48766C21.38 3.89078 20.6931 3.61031 20.0969 3.86031C14.7728 6.09312 10.3178 9.31906 6.85594 13.4484C4.30859 16.4867 2.34094 19.9483 1.00766 23.737C0.408281 25.4405 0.664688 27.2652 1.71156 28.7431C2.01641 29.1737 2.37891 29.5516 2.78266 29.8731C1.10328 31.0311 0 32.9669 0 35.1562V36.1884C0 39.282 2.20141 41.8709 5.11984 42.4714L5.09641 49.4677C2.18984 50.0772 0 52.6595 0 55.7445V56.7767C0 59.8686 2.19906 62.4563 5.11516 63.0586C5.03656 64.2916 5.07687 66.2925 5.78781 68.5187C7.70391 74.5187 12.8931 77.3762 16.9088 78.7167C19.2245 79.4897 21.6977 79.8817 24.2594 79.8817H55.7408C58.3025 79.8817 60.7755 79.4897 63.0912 78.7167C67.107 77.3761 72.2963 74.5187 74.2122 68.5187C74.9231 66.2927 74.9634 64.2916 74.8848 63.0586C77.8009 62.4564 80 59.8686 80 56.7767V55.7445C80 52.6513 77.7983 50.0645 74.8802 49.4642V42.4714C77.7986 41.8711 80 39.282 80 36.1884ZM2.34313 56.7767V55.7445C2.34313 53.9642 3.49328 52.4506 5.08844 51.8991L5.08609 52.5895C5.08609 54.2525 6.01875 55.7262 7.51984 56.4358C9.02969 57.1494 10.7716 56.9322 12.0652 55.8691C12.6703 55.3717 13.407 54.9116 14.6889 54.9116C14.8238 54.9116 14.9508 54.917 15.0747 54.9247V60.848H6.41422C4.16937 60.848 2.34313 59.0216 2.34313 56.7767ZM49.0294 47.6125H72.537V52.59C72.537 53.3489 72.1287 53.9948 71.4452 54.3178C70.7527 54.645 69.9841 54.5484 69.3889 54.0594C68.5442 53.3652 67.3134 52.5683 65.2763 52.5683C62.7608 52.5683 61.4711 53.5898 60.3333 54.4912C59.3342 55.2827 58.545 55.9077 56.845 55.9077C55.1448 55.9077 54.3558 55.2827 53.3567 54.4912C52.2189 53.59 50.9292 52.5683 48.4136 52.5683C45.898 52.5683 44.552 53.6345 43.4705 54.4912C42.4714 55.2827 41.6823 55.9077 39.9825 55.9077C38.2825 55.9077 37.4934 55.2827 36.4945 54.4912C35.4131 53.6345 34.067 52.5683 31.5516 52.5683C29.0359 52.5683 27.7464 53.5898 26.6084 54.4912C25.8963 55.0555 25.288 55.533 24.3827 55.7614V49.1647C24.3827 48.3087 25.0789 47.6125 25.9348 47.6125H43.5358C44.1828 47.6125 44.7073 47.088 44.7073 46.4409C44.7073 45.7939 44.1828 45.2694 43.5358 45.2694H25.9347C23.7867 45.2694 22.0394 47.0167 22.0394 49.1647V63.593C22.0394 64.8672 21.0028 65.9039 19.7286 65.9039C18.4544 65.9039 17.4178 64.8672 17.4178 63.593V49.1647C17.4178 47.0167 15.6703 45.2694 13.5225 45.2694H7.46297V42.6028H72.537V45.2694H49.0294C48.3823 45.2694 47.8578 45.7939 47.8578 46.4409C47.8578 47.088 48.3823 47.6125 49.0294 47.6125ZM13.5223 47.6125C14.3783 47.6125 15.0747 48.3087 15.0747 49.1647V52.5781C14.9492 52.5723 14.8216 52.5683 14.6889 52.5683C12.6523 52.5683 11.4219 53.3647 10.5775 54.0586C9.98219 54.5477 9.21359 54.6444 8.52078 54.317C7.83719 53.9941 7.42906 53.3481 7.42906 52.5894V47.6125H13.5223ZM71.9802 67.8059C70.682 71.8711 67.4417 74.7942 62.3492 76.4941C60.2731 77.1872 58.0497 77.5386 55.7406 77.5386H24.2594C21.9503 77.5386 19.7269 77.1872 17.6508 76.4941C7.675 73.1641 7.25719 65.8081 7.44641 63.1909H15.0748V63.5928C15.0748 66.1591 17.1625 68.2469 19.7288 68.2469C22.295 68.2469 24.3827 66.1592 24.3827 63.5928V63.1909H72.5477C72.6137 64.1917 72.59 65.8961 71.9802 67.8059ZM77.6569 55.7445V56.7767C77.6569 59.0216 75.8305 60.848 73.5856 60.848H24.3825V58.153C26.1005 57.8789 27.1336 57.0642 28.0631 56.328C29.0622 55.5366 29.8514 54.9116 31.5514 54.9116C33.2514 54.9116 34.0405 55.5366 35.0394 56.328C36.1209 57.1847 37.4669 58.2509 39.9823 58.2509C42.4978 58.2509 43.7875 57.2294 44.9253 56.328C45.9244 55.5366 46.7134 54.9116 48.4134 54.9116C50.1136 54.9116 50.9027 55.5366 51.9017 56.328C53.0395 57.2292 54.3292 58.2509 56.8448 58.2509C59.3605 58.2509 60.6502 57.2294 61.788 56.328C62.787 55.5366 63.5761 54.9116 65.2761 54.9116C66.5584 54.9116 67.2955 55.372 67.9009 55.8698C69.1944 56.9328 70.9361 57.1502 72.4461 56.4366C73.9473 55.7272 74.88 54.2533 74.88 52.5902V51.8858C76.4922 52.4278 77.6569 53.9522 77.6569 55.7445ZM73.5858 40.2597H6.41422C4.16937 40.2597 2.34297 38.4333 2.34297 36.1884V35.1562C2.34297 32.9114 4.16937 31.085 6.41422 31.085H73.5856C75.8305 31.085 77.6569 32.9114 77.6569 35.1562V36.1884C77.6569 38.4333 75.8306 40.2597 73.5858 40.2597Z" fill="#AA8453"/>
</svg>
