<svg width="80" height="78" viewBox="0 0 80 78" fill="none" xmlns="http://www.w3.org/2000/svg">
<path d="M78.6656 34.6667H59.9991C59.2628 34.6667 58.6658 35.2637 58.6658 36.0001V48C58.6716 52.343 61.3077 56.2499 65.3324 57.8814V67.5174L58.975 75.1456C58.643 75.5427 58.5714 76.0961 58.7908 76.5655C59.0102 77.0343 59.4815 77.3337 59.9991 77.3331H78.6656C79.1832 77.3337 79.6546 77.0343 79.874 76.5655C80.0934 76.0961 80.0217 75.5427 79.6897 75.1456L73.3323 67.5174V57.8814C77.357 56.2499 79.9931 52.343 79.999 48V36.0001C79.999 35.2637 79.402 34.6667 78.6656 34.6667ZM77.3323 37.3334V44H61.3324V37.3334H77.3323ZM70.9749 68.8546L75.8193 74.6664H62.8454L67.6898 68.8546C67.8897 68.6151 67.999 68.3123 67.999 67.9998V58.5748C68.8838 58.6978 69.7809 58.6978 70.6657 58.5748V67.9998C70.6657 68.3123 70.7751 68.6151 70.9749 68.8546ZM77.3323 48C77.3323 52.4186 73.7503 55.9999 69.3324 55.9999C64.9144 55.9999 61.3324 52.4186 61.3324 48V46.6667H77.3323V48Z" fill="#AA8453"/>
<path d="M54.6666 47.9999C55.4029 47.9999 55.9999 47.4035 55.9999 46.6666C55.9999 45.9303 55.4029 45.3333 54.6666 45.3333C50.985 45.3333 48 48.3183 48 51.9999C48 55.6821 50.985 58.6665 54.6666 58.6665C55.4029 58.6665 55.9999 58.0701 55.9999 57.3332C55.9999 56.5968 55.4029 55.9998 54.6666 55.9998C52.4576 55.9998 50.6666 54.2095 50.6666 51.9999C50.6666 49.7909 52.4576 47.9999 54.6666 47.9999Z" fill="#AA8453"/>
<path d="M54.6662 74.6665H43.9997V63.9999H59.9995C60.7359 63.9999 61.3329 63.4035 61.3329 62.6666C61.3329 61.9302 60.7359 61.3332 59.9995 61.3332H43.9997V42.6667H54.6662C55.4026 42.6667 55.9996 42.0704 55.9996 41.3334C55.9996 40.5971 55.4026 40.0001 54.6662 40.0001H43.9997V34.6668C43.9997 31.7215 46.3877 29.3335 49.3329 29.3335H62.6662C63.4025 29.3335 63.9995 28.7371 63.9995 28.0002C63.9995 27.2638 63.4025 26.6668 62.6662 26.6668H59.9995V13.3336C61.4722 13.3336 62.6662 12.1402 62.6662 10.667V2.66701C62.6662 1.19437 61.4722 0.000366211 59.9995 0.000366211H49.3329C47.8603 0.000366211 46.6663 1.19437 46.6663 2.66701V10.667C46.6663 12.1402 47.8603 13.3336 49.3329 13.3336V26.6668C44.9163 26.6714 41.3376 30.2508 41.333 34.6668V75.9998C41.333 76.7368 41.93 77.3331 42.6663 77.3331H54.6662C55.4026 77.3331 55.9996 76.7368 55.9996 75.9998C55.9996 75.2635 55.4026 74.6665 54.6662 74.6665ZM49.3329 2.66701H59.9995V10.667H49.3329V2.66701ZM51.9996 13.3336H57.3329V26.6668H51.9996V13.3336Z" fill="#AA8453"/>
<path d="M13.3329 55.9999C14.0693 55.9999 14.6663 55.4035 14.6663 54.6666C14.6663 53.9303 14.0693 53.3333 13.3329 53.3333H6.66633C5.93001 53.3333 5.33301 53.9303 5.33301 54.6666V63.9998C5.33301 64.7368 5.93001 65.3332 6.66633 65.3332H13.3329C14.0693 65.3332 14.6663 64.7368 14.6663 63.9998V59.9999C14.6663 59.2635 14.0693 58.6665 13.3329 58.6665C12.5966 58.6665 11.9996 59.2635 11.9996 59.9999V62.6665H7.99965V55.9999H13.3329Z" fill="#AA8453"/>
<path d="M20.0003 54.6665C19.264 54.6665 18.667 55.2635 18.667 55.9998V69.3331C18.667 70.07 19.264 70.6664 20.0003 70.6664C20.7366 70.6664 21.3336 70.07 21.3336 69.3331V55.9998C21.3336 55.2635 20.7366 54.6665 20.0003 54.6665Z" fill="#AA8453"/>
<path d="M25.3333 59.9999C24.597 59.9999 24 60.5969 24 61.3332V66.6665C24 67.4035 24.597 67.9998 25.3333 67.9998C26.0696 67.9998 26.6666 67.4035 26.6666 66.6665V61.3332C26.6666 60.5969 26.0696 59.9999 25.3333 59.9999Z" fill="#AA8453"/>
<path d="M30.6663 57.3333C29.93 57.3333 29.333 57.9303 29.333 58.6666V69.3332C29.333 70.0701 29.93 70.6665 30.6663 70.6665C31.4027 70.6665 31.9997 70.0701 31.9997 69.3332V58.6666C31.9997 57.9303 31.4027 57.3333 30.6663 57.3333Z" fill="#AA8453"/>
<path d="M12.6128 46.4565C13.0073 46.7117 13.5073 46.7403 13.9279 46.532C14.3491 46.3236 14.6297 45.9089 14.6662 45.4402C14.6733 45.3829 14.6772 45.325 14.6779 45.267C14.6786 44.6336 14.2326 44.0873 13.6115 43.9604C12.607 43.7566 11.9188 42.8256 12.0191 41.8054C12.1187 40.7853 12.9741 40.0053 13.9995 40.0001C14.7111 40.0014 15.368 40.3849 15.7183 41.0047C16.0418 41.5581 16.7143 41.8028 17.3179 41.5874C17.7306 41.4331 18.1662 41.3478 18.6063 41.3334C18.6512 41.3334 18.6954 41.3406 18.7313 41.3406C19.394 41.34 19.9559 40.8523 20.0503 40.1967C20.2501 38.7378 21.3888 37.5861 22.8452 37.3699C24.3015 37.1538 25.726 37.9253 26.3406 39.2631C26.5346 39.7078 26.9538 40.0118 27.4369 40.0581C27.9193 40.1043 28.3887 39.8842 28.6628 39.4845C28.9369 39.0848 28.9727 38.5672 28.7553 38.1336C27.7273 35.9116 25.4467 34.5412 23.0014 34.6772C20.5568 34.8127 18.4422 36.4272 17.6662 38.7495C17.5718 38.7658 17.4754 38.7846 17.3797 38.8042C16.0392 37.3732 13.9468 36.9324 12.1428 37.7013C10.3387 38.4702 9.20854 40.2853 9.31336 42.2436C9.41817 44.2019 10.7359 45.8855 12.6115 46.4578L12.6128 46.4565Z" fill="#AA8453"/>
<path d="M33.3331 40C32.6365 39.9987 31.9464 40.1348 31.3025 40.4004C30.6215 40.681 30.2973 41.4609 30.5785 42.1419C30.8591 42.8223 31.6391 43.1465 32.3201 42.8659C32.641 42.7331 32.9854 42.666 33.3331 42.6667C34.8057 42.6667 35.9997 43.8607 35.9997 45.3333C35.9997 46.8066 34.8057 47.9999 33.3331 47.9999C31.8604 47.9999 30.6664 46.8066 30.6664 45.3333C30.6664 44.597 30.0694 44 29.3331 44C28.5968 44 27.9998 44.597 27.9998 45.3333V51.9999C27.9998 52.7369 27.4028 53.3332 26.6665 53.3332C25.9301 53.3332 25.3331 52.7369 25.3331 51.9999V48.651C25.3331 48.1458 25.048 47.6842 24.5962 47.4583C24.1443 47.2324 23.604 47.2812 23.1997 47.5839C22.8559 47.8496 22.4341 47.9947 21.9998 47.996C21.0493 47.9967 20.2297 47.3274 20.0396 46.3964C19.8807 45.7688 19.3143 45.33 18.6665 45.3333C17.9302 45.3333 17.3332 45.9303 17.3332 46.6666V49.3333C17.3332 50.0702 16.7362 50.6666 15.9999 50.6666C15.2636 50.6666 14.6666 50.0702 14.6666 49.3333C14.6666 48.5969 14.0696 47.9999 13.3332 47.9999H6.66662C2.98631 48.0045 0.00455726 50.9869 0 54.6666V63.9998C0.00455726 67.6801 2.98631 70.6625 6.66662 70.6664H11.9999C12.0045 74.3468 14.9862 77.3292 18.6665 77.3331H31.9998C35.6801 77.3292 38.6618 74.3468 38.6664 70.6664V45.3333C38.6664 42.388 36.2784 40 33.3331 40ZM31.9998 74.6664H18.6665C16.4576 74.6664 14.6666 72.8761 14.6666 70.6664V69.3331C14.6666 68.5968 14.0696 67.9998 13.3332 67.9998H6.66662C4.45765 67.9998 2.66665 66.2094 2.66665 63.9998V54.6666C2.66665 52.4576 4.45765 50.6666 6.66662 50.6666H12.2453C12.8378 52.3547 14.4817 53.4413 16.2668 53.3254C18.0513 53.2102 19.5415 51.9205 19.912 50.1712C20.7629 50.5969 21.7238 50.7532 22.6665 50.6191V51.9999C22.6665 54.2095 24.4575 55.9999 26.6665 55.9999C28.8754 55.9999 30.6664 54.2095 30.6664 51.9999V49.9511C32.3162 50.9146 34.3591 50.9049 35.9997 49.9257V70.6664C35.9997 72.8761 34.2087 74.6664 31.9998 74.6664Z" fill="#AA8453"/>
</svg>
