<svg width="70" height="72" viewBox="0 0 70 72" fill="none" xmlns="http://www.w3.org/2000/svg">
<path d="M66.6991 59.803L56.817 55.5421L53.6488 43.6988C57.7377 42.1693 61.2102 39.0074 63.1162 35.0047C64.9799 31.0905 65.1052 26.8152 63.4801 22.9243C63.4684 22.8955 63.3726 22.6712 63.3354 22.588L56.5424 7.37288C56.2295 6.67194 55.4541 6.30256 54.714 6.50131L39.7831 10.5068L40.0121 8.2935C40.0907 7.53397 39.6096 6.82881 38.8745 6.626L33.987 5.27725C33.1562 5.04788 32.297 5.53647 32.0681 6.3685C31.8391 7.20053 32.3271 8.06085 33.1579 8.29006L36.7715 9.28725L36.1045 15.7321C31.6726 13.6973 25.8541 13.9146 21.8421 16.4929C18.5916 18.5818 13.4251 18.6158 9.93196 16.7166L15.7643 3.65803L19.7043 4.71569C20.5363 4.93928 21.3924 4.44475 21.6156 3.611C21.8387 2.77741 21.3448 1.92069 20.5124 1.69709L15.2871 0.294282C14.547 0.095376 13.7715 0.464751 13.4585 1.16553L6.66071 16.3857C4.88665 20.3633 4.96508 24.7712 6.88165 28.7973C8.78774 32.8013 12.2621 35.9652 16.3518 37.4958L13.1838 49.339L3.30071 53.5962C1.5404 54.3565 0.437114 56.113 0.555552 57.9673C0.673677 59.819 1.99415 61.328 4.00165 61.9052C4.01071 61.9079 4.01977 61.9104 4.02883 61.9127L17.8443 65.6162C17.8524 65.6183 17.8607 65.6205 17.869 65.6226C18.3282 65.7377 18.7806 65.7938 19.2177 65.7938C20.7124 65.7938 22.0291 65.1382 22.8243 63.9435C23.8535 62.3973 23.7754 60.324 22.6295 58.7837L16.1987 50.1483L19.3665 38.3058C20.2812 38.4594 21.2084 38.536 22.1368 38.536C25.5801 38.5358 29.0374 37.4938 31.9118 35.514C32.1641 35.3402 32.4091 35.1599 32.6481 34.9746C33.8029 37.8844 35.8941 40.3683 38.7095 42.124C41.4532 43.8351 44.6948 44.7312 47.8982 44.7312C48.8176 44.7312 49.7337 44.6566 50.634 44.5071L53.8021 56.3507L47.3712 64.9865C46.2246 66.5263 46.1448 68.5998 47.1726 70.146C47.9682 71.343 49.2862 71.9999 50.7827 71.9999C51.2181 71.9999 51.6688 71.9443 52.1259 71.8302C52.1348 71.828 52.1435 71.8257 52.1524 71.8233L65.9679 68.1155C65.9766 68.1132 65.9854 68.1107 65.994 68.1083C68.0054 67.5308 69.3276 66.0204 69.4448 64.1666C69.562 62.313 68.4579 60.5593 66.6991 59.803ZM39.4387 13.8346L54.2363 9.86491L60.0657 22.9218C56.574 24.8213 51.4077 24.7863 48.1548 22.6958C45.598 21.0512 42.1321 20.3269 38.7318 20.663L39.4387 13.8346ZM20.2276 62.2105C19.8429 62.7887 19.0715 62.7008 18.6379 62.594L4.85102 58.8983C4.42336 58.7735 3.71461 58.4624 3.67024 57.7685C3.64243 57.3337 3.9018 56.7407 4.53555 56.4668L13.9809 52.3982L20.1271 60.6516C20.5399 61.2062 20.4685 61.8485 20.2276 62.2105ZM30.1434 32.9391C26.852 35.2062 22.4482 35.979 18.6476 34.9555C18.6474 34.9555 18.6474 34.9555 18.6473 34.9554C18.6471 34.9554 18.647 34.9554 18.6466 34.9552C18.6465 34.9552 18.6463 34.9552 18.6462 34.9551C14.8465 33.9385 11.4181 31.0638 9.69899 27.4526C8.49993 24.9337 8.21071 22.2333 8.82977 19.6673C10.9126 20.7185 13.3388 21.2521 15.7574 21.2519C18.5396 21.2518 21.3102 20.5482 23.5279 19.123C26.8788 16.9693 32.2657 16.998 35.7585 19.0763L35.1916 24.5535C34.8399 27.9612 33.0471 30.9391 30.1434 32.9391ZM40.3595 39.4712C37.7185 37.8243 35.886 35.3862 35.1335 32.5512C36.9048 30.3704 37.9998 27.7446 38.296 24.8752L38.402 23.8516C41.3173 23.4137 44.3273 23.9479 46.4687 25.3255C48.689 26.7524 51.4606 27.4566 54.2441 27.4566C56.6616 27.4566 59.0866 26.9232 61.1681 25.8726C61.7876 28.4398 61.4987 31.1405 60.2991 33.6596C58.5804 37.2694 55.1543 40.1419 51.354 41.1577C51.354 41.1577 51.3538 41.1577 51.3537 41.1577C51.3537 41.1577 51.3534 41.1579 51.3532 41.1579C51.3527 41.158 51.3523 41.1582 51.3518 41.1583C47.7288 42.1349 43.6195 41.5043 40.3595 39.4712ZM65.1454 65.1007L51.3591 68.8007C50.9257 68.9069 50.1552 68.9933 49.7707 68.4146C49.5301 68.0526 49.4596 67.4101 49.8732 66.8546L56.0196 58.601L65.466 62.6741C66.0987 62.9462 66.3573 63.5362 66.3299 63.9693C66.2863 64.6641 65.5746 64.9755 65.1454 65.1007Z" fill="#AA8453"/>
</svg>
