<svg width="80" height="76" viewBox="0 0 80 76" fill="none" xmlns="http://www.w3.org/2000/svg">
<path d="M77.208 32.124C76.5316 30.2215 74.3897 24.9076 69.9457 19.5409C66.7463 15.6773 63.0141 12.5967 58.8524 10.3844C55.4854 8.59454 51.8339 7.37938 47.9453 6.74189C47.6197 3.40534 44.7992 0.78894 41.3786 0.78894C37.9591 0.78894 35.1392 3.40377 34.8122 6.73876C31.2227 7.32704 27.8357 8.40969 24.6904 9.97969C20.6216 12.0106 16.9407 14.8598 13.7498 18.4482C12.7446 19.5786 14.4954 21.1367 15.501 20.0059C21.0815 13.7303 27.9961 10.0136 36.1061 8.91047C36.112 8.90969 36.1178 8.90985 36.1238 8.90891C43.4283 7.91094 51.1553 8.96063 57.7057 12.4291C61.5904 14.4859 65.0826 17.3592 68.0854 20.9692C71.7247 25.3443 73.766 29.7709 74.6581 32.0168H8.09841C8.81059 30.2216 10.2554 27.0354 12.6598 23.6043C13.5229 22.3728 11.614 21.0128 10.7407 22.259C7.68169 26.624 6.11091 30.5484 5.54967 32.1238C3.94827 32.5185 2.75702 33.9662 2.75702 35.6876C2.75702 37.7116 4.40373 39.3582 6.42779 39.3582H24.1248L13.8812 52.5359H1.17187C0.524685 52.5359 0 53.0606 0 53.7078C0 53.7078 0 73.9505 0 74.039C0 74.3801 0.155624 74.6933 0.398123 74.9101C0.606404 75.0963 0.878903 75.2112 1.17187 75.2112C1.21765 75.2112 1.26359 75.2085 1.30953 75.203L14.5923 73.6324C15.1821 73.5627 15.6265 73.0626 15.6265 72.4687V68.1157L43.4517 61.2425C44.3086 61.0843 45.0873 60.677 45.7064 60.0628C45.7211 60.0482 45.7353 60.0334 45.7492 60.0181L59.942 44.3652C61.2865 43.0102 61.5459 40.9758 60.7171 39.3582H76.3292C78.3533 39.3582 80 37.7115 80 35.6876C80 33.9663 78.8089 32.5188 77.208 32.124ZM45.1384 6.38532C43.5267 6.24064 41.9072 6.18892 40.2895 6.23001C39.4414 6.25126 38.5947 6.30126 37.7494 6.37392C37.5778 6.38876 37.4053 6.40157 37.2349 6.41845C37.6745 4.53752 39.3655 3.13268 41.3784 3.13268C43.3914 3.13268 45.0823 4.53752 45.522 6.41845C45.395 6.40579 45.2662 6.39673 45.1384 6.38532ZM13.2826 71.4273L2.34374 72.7207V54.8797H13.2826V71.4273ZM58.2673 42.7253C58.2527 42.7399 58.2384 42.7547 58.2246 42.7699L44.0359 58.4182C43.7517 58.6928 43.3961 58.8734 43.0059 58.9414C42.9791 58.9461 42.9525 58.9517 42.9261 58.9581L15.6263 65.7015V54.1097C15.6263 54.1097 26.6647 39.9093 26.6755 39.8954C27.3185 39.0688 28.7527 39.2722 29.4152 39.9302C30.0957 40.6061 30.1924 41.6663 29.6454 42.451C29.5364 42.6072 23.5143 51.8606 23.5071 51.8719C23.0063 52.6412 23.5838 53.6775 24.4929 53.6775H41.1567C41.4659 53.6775 41.7626 53.5553 41.9822 53.3375C41.9822 53.3375 55.4781 39.9446 55.4929 39.9297C56.256 39.1724 57.5215 39.178 58.2779 39.9403C59.0427 40.7111 59.0379 41.9605 58.2673 42.7253ZM31.8622 39.3582H38.6742L26.6972 51.2437C26.6972 51.2437 31.456 43.9522 31.568 43.7914C32.5025 42.451 32.5774 40.7464 31.8622 39.3582ZM33.6402 51.3337H29.9339L41.4258 39.9297C41.797 39.5613 42.2895 39.3583 42.8128 39.3583C43.5583 39.3583 44.2639 39.7996 44.5858 40.4718L33.6402 51.3337ZM48.4592 39.9297C48.8306 39.5613 49.3231 39.3583 49.8462 39.3583C50.5951 39.3583 51.2959 39.7968 51.6193 40.4718L40.6737 51.3339H36.9675L48.4592 39.9297ZM76.3289 37.0144H6.42779C5.69607 37.0144 5.10076 36.4193 5.10076 35.6876C5.10076 34.9558 5.69607 34.3607 6.42779 34.3607H76.3289C77.0606 34.3607 77.6559 34.956 77.6559 35.6876C77.6559 36.4191 77.0606 37.0144 76.3289 37.0144Z" fill="#AA8453"/>
</svg>
